<svg fill="#0E5588" xmlns="http://www.w3.org/2000/svg" xmlns:xlink="http://www.w3.org/1999/xlink" version="1.1" x="0px" y="0px" viewBox="1 -1 100 100" style="enable-background:new 1 -1 100 100;" xml:space="preserve"><g><path d="M65.6,68.7c9.9-8,11.4-22.6,3.3-32.5c-0.8-0.9-1.6-1.8-2.5-2.6c-9.6-8.4-24.2-7.5-32.6,2.1c-3.1,3.5-5,7.9-5.6,12.6   c-0.9,7.6,2.2,15.2,8.1,20c2.3,1.8,3.6,4.5,3.6,7.4v0.5l0,0v7c0,4.6,3.8,8.4,8.4,8.4h5.5c4.6,0,8.4-3.8,8.4-8.4v-7.1l0,0   C62.2,73.3,63.4,70.6,65.6,68.7z M53.8,89.9h-5.6c-3.6,0-6.5-2.9-6.5-6.5v-6.1h18.6v6.1C60.4,87,57.4,89.9,53.8,89.9z M51,58.6   c-3.2,0-5.9-2.6-5.9-5.9c0-3.2,2.6-5.9,5.9-5.9c3.2,0,5.9,2.6,5.9,5.9c0,0,0,0.1,0,0.1C56.9,56,54.2,58.6,51,58.6z M60.4,75.4H52   v-15c4.2-0.5,7.3-4.4,6.7-8.6c-0.5-4.2-4.4-7.3-8.6-6.7c-4.2,0.5-7.3,4.4-6.7,8.6c0.4,3.5,3.2,6.3,6.7,6.7v15h-8.4   c-0.2-3.3-1.7-6.4-4.3-8.5C32,62.5,29.2,55.5,30,48.5C31.4,36.9,41.8,28.6,53.4,30C65,31.3,73.3,41.8,72,53.4   c-0.6,5.5-3.4,10.5-7.6,13.9C62,69.4,60.6,72.3,60.4,75.4z"></path><path d="M52,18.2V7.3c0-0.5-0.4-0.9-0.9-0.9c-0.5,0-0.9,0.4-0.9,0.9v10.9c0,0.5,0.4,0.9,0.9,0.9C51.6,19.1,52,18.7,52,18.2z"></path><path d="M75.1,26.8c0.2,0,0.5-0.1,0.7-0.3l7.7-7.7c0.3-0.4,0.2-1-0.2-1.3c-0.3-0.2-0.8-0.2-1.1,0l-7.7,7.7c-0.4,0.4-0.4,1,0,1.3   C74.6,26.8,74.8,26.8,75.1,26.8z"></path><path d="M26.3,26.6c0.4,0.3,1,0.2,1.3-0.2c0.2-0.3,0.2-0.8,0-1.1l-7.7-7.7c-0.4-0.3-1-0.2-1.3,0.2c-0.2,0.3-0.2,0.8,0,1.1   L26.3,26.6z"></path></g></svg>