<svg fill="#0E5588" xmlns:dc="http://purl.org/dc/elements/1.1/" xmlns:cc="http://creativecommons.org/ns#" xmlns:rdf="http://www.w3.org/1999/02/22-rdf-syntax-ns#" xmlns:svg="http://www.w3.org/2000/svg" xmlns="http://www.w3.org/2000/svg" xmlns:sodipodi="http://sodipodi.sourceforge.net/DTD/sodipodi-0.dtd" xmlns:inkscape="http://www.inkscape.org/namespaces/inkscape" version="1.1" x="0px" y="0px" viewBox="0 0 100 100"><g transform="translate(0,-952.36218)"><path style="text-indent:0;text-transform:none;direction:ltr;block-progression:tb;baseline-shift:baseline;color:#000000;enable-background:accumulate;" d="m 7.8123542,959.3667 a 0.99992227,1.0000474 0 0 0 -0.8123556,0.99995 l 0,11.99937 a 0.99992227,1.0000474 0 1 0 1.9996446,0 l 0,-9.59325 13.2788898,13.28056 a 1.0052995,1.0054253 0 1 0 1.437244,-1.40618 l -13.278889,-13.28055 9.5608,0 a 0.99992227,1.0000474 0 1 0 0,-1.9999 l -11.9978671,0 a 0.99992227,1.0000474 0 0 0 -0.1874667,0 z m 42.1800028,0 c -6.062211,0 -10.998045,4.93645 -10.998045,10.99942 0,3.71843 1.852342,7.00746 4.686667,8.99953 l -1.6872,0 c -3.306114,0 -5.998934,2.69316 -5.998934,5.99969 l 0,29.99846 c 0,2.9696 2.16146,5.4637 4.999111,5.9372 l 0,19.0615 c 0,1.3143 0.387008,2.5186 1.093556,3.4373 0.706548,0.9186 1.767272,1.5624 2.968222,1.5624 l 9.873245,0 c 1.200951,0 2.261674,-0.6438 2.968223,-1.5624 0.706548,-0.9187 1.093555,-2.123 1.093555,-3.4373 l 0,-19.0615 c 2.837652,-0.4735 4.999112,-2.9676 4.999112,-5.9372 l 0,-29.99846 c 0,-3.30653 -2.69282,-5.99969 -5.998934,-5.99969 l -1.6872,0 c 2.834325,-1.99207 4.686667,-5.2811 4.686667,-8.99953 0,-6.06297 -4.935835,-10.99942 -10.998045,-10.99942 z m 29.807202,0 a 1.0042064,1.0043321 0 1 0 0.187466,1.9999 l 9.560801,0 -13.27889,13.28055 a 1.0052996,1.0054254 0 1 0 1.437245,1.40618 l 13.27889,-13.28056 0,9.59325 a 0.99992227,1.0000474 0 1 0 1.999644,0 l 0,-11.99937 a 0.99992227,1.0000474 0 0 0 -0.999822,-0.99995 l -11.997868,0 a 0.99992227,1.0000474 0 0 0 -0.187466,0 z m -29.807202,1.9999 c 4.981521,0 8.9984,4.01738 8.9984,8.99952 0,4.98215 -4.016879,8.99953 -8.9984,8.99953 -4.981522,0 -8.998401,-4.01738 -8.998401,-8.99953 0,-4.98214 4.016879,-8.99952 8.998401,-8.99952 z m -7.998578,19.99895 7.998578,0 7.998578,0 c 2.232899,0 3.999289,1.7666 3.999289,3.99979 l 0,29.99846 c 0,2.2332 -1.76639,3.9998 -3.999289,3.9998 l -15.997156,0 c -2.232899,0 -3.99929,-1.7666 -3.99929,-3.9998 l 0,-29.99846 c 0,-2.23319 1.766391,-3.99979 3.99929,-3.99979 z m -26.026624,11.96812 a 0.99992227,1.0000474 0 0 0 -0.687378,0.31248 l -7.9985783,7.99955 a 0.99992227,1.0000474 0 0 0 0,1.4062 l 7.9985783,7.9996 a 1.0053169,1.0054427 0 0 0 1.437244,-1.4062 l -6.280133,-6.2809 18.559201,0 a 0.99992227,1.0000474 0 1 0 0,-1.9999 l -18.559201,0 6.280133,-6.31217 a 0.99992227,1.0000474 0 0 0 -0.749866,-1.71866 z m 67.894182,0 a 0.99992227,1.0000474 0 0 0 -0.593645,1.71866 l 6.280134,6.31217 -18.559201,0 a 0.99992227,1.0000474 0 0 0 -0.187467,0 1.0042064,1.0043321 0 1 0 0.187467,1.9999 l 18.559201,0 -6.280134,6.2809 a 1.0053171,1.0054429 0 1 0 1.437245,1.4062 l 7.998578,-7.9996 a 0.99992227,1.0000474 0 0 0 0,-1.4062 l -7.998578,-7.99955 a 0.99992227,1.0000474 0 0 0 -0.8436,-0.31248 z m -40.867736,28.02983 13.997512,0 0,18.999 c 0,0.9015 -0.281817,1.6912 -0.687378,2.2185 -0.405561,0.5273 -0.871394,0.7813 -1.374756,0.7813 l -9.873245,0 c -0.503361,0 -0.969194,-0.254 -1.374755,-0.7813 -0.405561,-0.5273 -0.687378,-1.317 -0.687378,-2.2185 l 0,-18.999 z m -20.02769,6.9683 a 0.99992227,1.0000474 0 0 0 -0.687378,0.3125 l -13.2788898,13.2806 0,-9.562 a 0.99992227,1.0000474 0 0 0 -1.1248001,-1.0313 0.99992227,1.0000474 0 0 0 -0.8748445,1.0313 l 0,11.9994 a 0.99992227,1.0000474 0 0 0 0.9998223,0.9999 l 11.9978671,0 a 0.99992227,1.0000474 0 1 0 0,-1.9999 l -9.592045,0 13.310134,-13.3118 a 0.99992227,1.0000474 0 0 0 -0.749866,-1.7187 z m 53.89667,0 a 0.99992227,1.0000474 0 0 0 -0.593645,1.7187 l 13.310134,13.3118 -9.592045,0 a 0.99992227,1.0000474 0 1 0 0,1.9999 l 11.997868,0 a 0.99992227,1.0000474 0 0 0 0.999822,-0.9999 l 0,-11.9994 a 0.99992227,1.0000474 0 0 0 -1.1248,-1.0313 0.99992227,1.0000474 0 0 0 -0.874844,1.0313 l 0,9.562 -13.27889,-13.2806 a 0.99992227,1.0000474 0 0 0 -0.8436,-0.3125 z" fill="#0E5588" fill-opacity="1" stroke="none" marker="none" visibility="visible" display="inline" overflow="visible"></path></g></svg>