<svg fill="#0E5588" xmlns:x="http://ns.adobe.com/Extensibility/1.0/" xmlns:i="http://ns.adobe.com/AdobeIllustrator/10.0/" xmlns:graph="http://ns.adobe.com/Graphs/1.0/" xmlns="http://www.w3.org/2000/svg" xmlns:xlink="http://www.w3.org/1999/xlink" version="1.1" x="0px" y="0px" viewBox="0 0 64 64" enable-background="new 0 0 64 64" xml:space="preserve"><metadata><sfw xmlns="http://ns.adobe.com/SaveForWeb/1.0/"><slices></slices><sliceSourceBounds height="16384" width="16389" x="-8165" y="-8160" bottomLeftOrigin="true"></sliceSourceBounds></sfw></metadata><g><g><path d="M48,7.5H16c-4.687,0-8.5,3.813-8.5,8.5v32c0,4.687,3.813,8.5,8.5,8.5h32c4.687,0,8.5-3.813,8.5-8.5V16    C56.5,11.313,52.687,7.5,48,7.5z M55.5,48c0,4.136-3.364,7.5-7.5,7.5H16c-4.136,0-7.5-3.364-7.5-7.5V16c0-4.136,3.364-7.5,7.5-7.5    h32c4.136,0,7.5,3.364,7.5,7.5V48z"></path><path d="M44.354,17.646c-0.195-0.195-0.512-0.195-0.707,0s-0.195,0.512,0,0.707l3.146,3.146H40c-3.688,0-6.826,2.365-8,5.655    c-1.174-3.29-4.312-5.655-8-5.655h-6.793l3.146-3.146c0.195-0.195,0.195-0.512,0-0.707s-0.512-0.195-0.707,0l-4,4    c-0.195,0.195-0.195,0.512,0,0.707l4,4C19.744,26.451,19.872,26.5,20,26.5s0.256-0.049,0.354-0.146    c0.195-0.195,0.195-0.512,0-0.707L17.207,22.5H24c4.136,0,7.5,3.364,7.5,7.5v16c0,0.276,0.224,0.5,0.5,0.5s0.5-0.224,0.5-0.5V30    c0-4.136,3.364-7.5,7.5-7.5h6.793l-3.146,3.146c-0.195,0.195-0.195,0.512,0,0.707C43.744,26.451,43.872,26.5,44,26.5    s0.256-0.049,0.354-0.146l4-4c0.195-0.195,0.195-0.512,0-0.707L44.354,17.646z"></path></g></g></svg>