<svg fill="#0E5588" xmlns="http://www.w3.org/2000/svg" xmlns:xlink="http://www.w3.org/1999/xlink" version="1.1" x="0px" y="0px" viewBox="0 0 52 52" style="enable-background:new 0 0 52 52;" xml:space="preserve"><style type="text/css">
	.st0{fill:none;stroke:#0E5588;stroke-linecap:round;stroke-linejoin:round;stroke-miterlimit:10;}
	.st1{fill:none;}
</style><g><g><path d="M40.3813477,49.5h-10.987793c-0.2763672,0-0.5-0.2236328-0.5-0.5V37.9536133    c0-1.2446289,0.484375-2.4145508,1.3642578-3.2944336l5.1875-5.1870117c1.0893555-1.0893555,2.8613281-1.0883789,3.949707,0    c0.4819336,0.4819336,0.7509766,1.0981445,0.8061523,1.7294922l0.0234375-0.0234375    c1.1274414-1.1274414,1.7485352-2.6269531,1.7485352-4.2216797V19.53125c0-1.5400391,1.2529297-2.7929688,2.793457-2.7929688    c1.5400391,0,2.7929688,1.2529297,2.7929688,2.7929688v10.3193359c0,1.3466797-0.4697266,2.6625977-1.3227539,3.7050781    l-6.5727539,8.0317383c-0.5263672,0.6435547-0.7006836,1.5043945-0.4667969,2.3022461l1.6582031,4.9516602    c0.0512695,0.1523438,0.0258789,0.3203125-0.0683594,0.4506836C40.6933594,49.4228516,40.5419922,49.5,40.3813477,49.5z     M29.8935547,48.5h9.7929688l-1.4433594-4.3110352c-0.3325195-1.1328125-0.0883789-2.3354492,0.6469727-3.234375    l6.5727539-8.0317383c0.7070313-0.8647461,1.0966797-1.9555664,1.0966797-3.0722656V19.53125    c0-0.9887695-0.8041992-1.7929688-1.7929688-1.7929688s-1.793457,0.8041992-1.793457,1.7929688v7.425293    c0,1.8618164-0.7250977,3.6123047-2.0415039,4.9287109l-4.4155273,4.4155273    c-0.1953125,0.1953125-0.5117188,0.1953125-0.7070313,0c-0.0976563-0.0976563-0.1464844-0.2255859-0.1464844-0.3535156    s0.0488281-0.2558594,0.1464844-0.3535156l2.8823242-2.8823242c0.6958008-0.6992188,0.6943359-1.8344727-0.003418-2.5322266    c-0.7001953-0.7001953-1.8374023-0.6992188-2.5356445,0l-5.1875,5.1870117    c-0.690918,0.690918-1.0712891,1.6098633-1.0712891,2.5874023V48.5z"></path></g><g><path d="M22.6064453,49.5H11.6181641c-0.1606445,0-0.3120117-0.0771484-0.4057617-0.2080078    c-0.0942383-0.1303711-0.1196289-0.2983398-0.0683594-0.4506836l1.6640625-4.9697266    c0.2280273-0.7797852,0.0537109-1.640625-0.4731445-2.2841797l-6.5717773-8.0317383    c-0.8530273-1.0419922-1.3227539-2.3579102-1.3227539-3.7050781V19.53125c0-1.5400391,1.2529297-2.7929688,2.7929688-2.7929688    s2.7929688,1.2529297,2.7929688,2.7929688v7.425293c0,1.5947266,0.6210938,3.0942383,1.7485352,4.2216797l0.0234375,0.0234375    c0.0551758-0.6313477,0.3242188-1.2475586,0.8061523-1.7294922c1.0888672-1.0888672,2.8613281-1.0888672,3.9501953,0    l5.1870117,5.1870117c0.8798828,0.8798828,1.3647461,2.0498047,1.3647461,3.2944336V49    C23.1064453,49.2763672,22.8828125,49.5,22.6064453,49.5z M12.3129883,48.5h9.793457V37.9536133    c0-0.9633789-0.390625-1.90625-1.0717773-2.5874023l-5.1870117-5.1870117c-0.6992188-0.6992188-1.8369141-0.6992188-2.5361328,0    c-0.6977539,0.6977539-0.6992188,1.8330078-0.003418,2.5322266l2.8823242,2.8823242    c0.0976563,0.0976563,0.1464844,0.2255859,0.1464844,0.3535156s-0.0488281,0.2558594-0.1464844,0.3535156    c-0.1953125,0.1953125-0.5117188,0.1953125-0.7070313,0l-4.4155273-4.4155273    c-1.3164063-1.3164063-2.0415039-3.0668945-2.0415039-4.9287109V19.53125c0-0.9887695-0.8041992-1.7929688-1.7929688-1.7929688    S5.4404297,18.5424805,5.4404297,19.53125v10.3193359c0,1.1166992,0.3891602,2.2080078,1.0966797,3.0722656l6.5717773,8.0317383    c0.7358398,0.8989258,0.9799805,2.1015625,0.6533203,3.2163086L12.3129883,48.5z"></path></g><g><path d="M15.6147461,29.9125977c-0.0981445,0-0.1972656-0.0288086-0.2841797-0.0888672    c-0.2270508-0.1572266-0.2836914-0.46875-0.1264648-0.6958008c2.4638672-3.5576172,6.5146484-5.6816406,10.8359375-5.6816406    c4.3027344,0,8.34375,2.109375,10.809082,5.6430664c0.1577148,0.2265625,0.1025391,0.5380859-0.1240234,0.6962891    c-0.2280273,0.1572266-0.5390625,0.1025391-0.6962891-0.1240234c-2.2783203-3.265625-6.0126953-5.215332-9.9887695-5.215332    c-3.9931641,0-7.7368164,1.9628906-10.0136719,5.2509766C15.9291992,29.8374023,15.7734375,29.9125977,15.6147461,29.9125977z"></path></g><g><g><g><path d="M26.0273438,24.4462891c-0.2763672,0-0.5-0.2236328-0.5-0.5V11.015625c0-0.2763672,0.2236328-0.5,0.5-0.5      s0.5,0.2236328,0.5,0.5v12.9306641C26.5273438,24.2226563,26.3037109,24.4462891,26.0273438,24.4462891z"></path></g><g><g><g><path d="M29.9438477,15.3579102c-1.1645508,0-2.2626953-0.449707-3.0541992-1.2788086l-0.2070313-0.2158203        c0,0,0,0,0-0.0004883c-0.9404297-0.984375-1.3413086-2.3505859-1.0722656-3.6552734        c0.7373047-3.5771484,4.1430664-7.472168,11.4912109-7.675293L38.2670898,2.5        c0.1469727,0.0039063,0.2773438,0.0522461,0.375,0.1542969c0.0976563,0.1025391,0.1474609,0.2412109,0.137207,0.3823242        L38.6943359,4.199707c-0.4389648,6.0068359-3.359375,10.1420898-7.8110352,11.0615234        C30.5683594,15.3261719,30.2539063,15.3579102,29.9438477,15.3579102z M27.4052734,13.1723633l0.2070313,0.2158203        c0.7631836,0.7988281,1.9106445,1.1328125,3.0688477,0.8935547c3.9882813-0.8232422,6.6113281-4.6196289,7.0161133-10.1552734        l0.0444336-0.6113281l-0.612793,0.0170898C30.3647461,3.71875,27.2495117,7.2070313,26.5898438,10.409668        C26.387207,11.3925781,26.6918945,12.425293,27.4052734,13.1723633L27.4052734,13.1723633z"></path></g><g><path d="M27.043457,14.0175781c-0.0771484,0-0.1552734-0.0175781-0.2285156-0.0556641        c-0.2456055-0.1264648-0.3417969-0.4277344-0.215332-0.6733398c0.0766602-0.1489258,1.9204102-3.6645508,5.3188477-4.8369141        C32.1796875,8.3608398,32.4638672,8.5,32.5541992,8.7612305c0.0898438,0.2612305-0.0483398,0.5458984-0.3095703,0.6357422        c-3.0234375,1.0429688-4.7392578,4.3168945-4.7563477,4.3496094        C27.3999023,13.9189453,27.2246094,14.0175781,27.043457,14.0175781z"></path></g></g><g><g><path d="M22.1103516,15.3579102c-0.3100586,0-0.6245117-0.0317383-0.9394531-0.0966797        c-4.4516602-0.9194336-7.3720703-5.0546875-7.8110352-11.0615234l-0.0849609-1.1630859        c-0.0102539-0.1411133,0.0395508-0.2797852,0.137207-0.3823242c0.097168-0.1020508,0.2363281-0.1503906,0.375-0.1542969        l1.1655273,0.0322266c7.3486328,0.203125,10.7543945,4.0981445,11.4912109,7.675293        c0.269043,1.3046875-0.1318359,2.6708984-1.0722656,3.6552734c0,0.0004883,0,0.0004883,0,0.0004883l-0.2070313,0.2163086        C24.3730469,14.9082031,23.2749023,15.3579102,22.1103516,15.3579102z M14.3125,3.5151367l0.0444336,0.6113281        c0.4047852,5.5351563,3.027832,9.331543,7.0161133,10.1552734c1.1577148,0.237793,2.3061523-0.0947266,3.0688477-0.8930664        l0.2070313-0.2167969c0.7133789-0.7470703,1.0180664-1.7792969,0.8154297-2.762207        c-0.659668-3.2026367-3.7744141-6.690918-10.5390625-6.8774414L14.3125,3.5151367z M25.0102539,13.5175781h0.0097656        H25.0102539z"></path></g><g><path d="M25.0107422,14.0175781c-0.1811523,0-0.355957-0.0986328-0.4448242-0.2705078        c-0.0170898-0.0332031-1.7426758-3.3105469-4.7558594-4.3500977        c-0.2612305-0.0898438-0.3994141-0.3745117-0.3095703-0.6357422S19.875,8.3613281,20.1362305,8.4516602        c3.3979492,1.1723633,5.2416992,4.6879883,5.3183594,4.8369141c0.1264648,0.2451172,0.0302734,0.5463867-0.2148438,0.6728516        C25.1665039,13.9995117,25.0878906,14.0175781,25.0107422,14.0175781z"></path></g></g></g></g></g></g></svg>