<svg fill="#0E5588" xmlns="http://www.w3.org/2000/svg" viewBox="0 0 70.97 70.97" x="0px" y="0px"><defs><style>.cls-1,.cls-2{fill:none;stroke:#0E5588;}.cls-1{stroke-miterlimit:10;}.cls-2{stroke-linecap:round;stroke-linejoin:round;}</style></defs><title>Asset 4</title><g data-name="Layer 2"><g data-name="Layer 1"><circle class="cls-1" cx="35.48" cy="35.48" r="34.98"></circle><polygon class="cls-1" points="35.48 9.43 40.04 15.53 46.79 12.01 48.25 19.48 55.85 19.24 53.92 26.6 60.88 29.69 55.95 35.48 60.88 41.28 53.92 44.37 55.85 51.73 48.25 51.49 46.79 58.95 40.04 55.44 35.48 61.53 30.93 55.44 24.18 58.95 22.72 51.49 15.12 51.73 17.04 44.37 10.09 41.28 15.02 35.48 10.09 29.69 17.04 26.6 15.12 19.24 22.72 19.48 24.18 12.01 30.93 15.53 35.48 9.43"></polygon><path class="cls-2" d="M28.47,45.83c.12.07,6.15,2.49,9.77,2.59,1.79,0,5.18.53,6.79-.29a1.7,1.7,0,0,0,1-1c.36-.93-.64-1.72-.49-2.29.27-1,2.25-.41,2.53-2.1.12-.75-.63-1.57-.51-2.08s1.16-.77,1.47-1.55c.43-1.08-.23-1.39-.57-2.3-.28-.75-.18-.71.07-1.42.4-1.13,1.08-1.69.43-2.92s-1.5-1.14-2.61-1.19c-3.39-.17-8.85,1.64-8.55-3.47.19-3.15,3.06-7.37-1.1-9.17-1.72-.74-1.54.42-1.41,1.8.17,1.73.36,3.23-.73,4.71a24.92,24.92,0,0,1-2.92,3.39c-.9.84-2.84,1.66-3.21,2.81C28.47,31.31,28.54,43.69,28.47,45.83Z"></path><rect class="cls-1" x="21.71" y="30.89" width="4.1" height="14.57" rx="0.82" ry="0.82"></rect></g></g></svg>